<?xml version="1.0" ?><svg style="enable-background:new 0 0 61 52.03;" version="1.1" viewBox="0 0 61 52.03" xml:space="preserve" xmlns="http://www.w3.org/2000/svg" xmlns:xlink="http://www.w3.org/1999/xlink"><style type="text/css">
	.st0{fill:#FFFFFF;stroke:#000000;stroke-miterlimit:10;}
	.st1{fill:#FFFFFF;}
	.st2{fill:none;stroke:#000000;stroke-miterlimit:10;}
	.st3{fill:none;stroke:#000000;stroke-linecap:round;stroke-miterlimit:10;}
	.st4{fill:none;stroke:#000000;stroke-linejoin:round;stroke-miterlimit:10;}
	.st5{fill:none;stroke:#000000;stroke-linecap:round;stroke-linejoin:round;stroke-miterlimit:10;}
</style><g id="Layer_2"/><g id="Layer_1"/><g id="Layer_3"><g><path d="M60.78,0.08c-0.14-0.09-0.32-0.11-0.47-0.04L40.5,8.38L20.69,0.04c-0.12-0.05-0.26-0.05-0.39,0l-20,8.42    C0.12,8.54,0,8.72,0,8.92v42.61c0,0.17,0.08,0.32,0.22,0.42c0.08,0.05,0.18,0.08,0.28,0.08c0.07,0,0.13-0.01,0.19-0.04l19.81-8.34    L40.31,52c0.12,0.05,0.26,0.05,0.39,0l20-8.42C60.88,43.5,61,43.31,61,43.11V0.5C61,0.33,60.92,0.18,60.78,0.08z M60,42.78l-19,8    V30.26h-1v20.52l-19-8V38.6h-1v4.18l-19,8V9.25l19-8v30.88h1V1.25l19,8v14.94h1V9.25l19-8V42.78z"/><path d="M10,38.26h1v-6.59c1.98-0.25,3.52-1.92,3.52-3.97c0-2.22-1.8-4.02-4.02-4.02c-2.21,0-4.02,1.8-4.02,4.02    c0,2.04,1.54,3.72,3.52,3.97V38.26z M7.48,27.71c0-1.66,1.35-3.02,3.02-3.02c1.66,0,3.02,1.35,3.02,3.02    c0,1.66-1.35,3.02-3.02,3.02C8.84,30.73,7.48,29.37,7.48,27.71z"/><path d="M50.49,16.72v3.97h1v-3.97c1.98-0.25,3.52-1.92,3.52-3.97c0-2.22-1.8-4.02-4.02-4.02s-4.02,1.8-4.02,4.02    C46.97,14.8,48.51,16.47,50.49,16.72z M50.99,9.73c1.66,0,3.02,1.35,3.02,3.02s-1.35,3.02-3.02,3.02s-3.02-1.35-3.02-3.02    S49.33,9.73,50.99,9.73z"/><rect height="1.87" transform="matrix(0.8597 -0.5107 0.5107 0.8597 -19.6386 11.4545)" width="1.87" x="10.1" y="40.55"/><rect height="1.87" transform="matrix(0.8598 -0.5107 0.5107 0.8598 -17.8664 13.0119)" width="1.87" x="13.82" y="38.1"/><rect height="1.87" transform="matrix(0.8597 -0.5107 0.5107 0.8597 -16.095 14.5704)" width="1.87" x="17.54" y="35.65"/><rect height="1.87" transform="matrix(0.5107 -0.8598 0.8598 0.5107 -21.0046 46.0598)" width="1.87" x="29.03" y="40.55"/><rect height="1.87" transform="matrix(0.5107 -0.8598 0.8598 0.5107 -20.7222 41.662)" width="1.87" x="25.3" y="38.1"/><rect height="1.87" transform="matrix(0.5107 -0.8598 0.8598 0.5107 -20.4398 37.2643)" width="1.87" x="21.58" y="35.65"/><rect height="1.87" transform="matrix(0.439 -0.8985 0.8985 0.439 -2.8388 50.2176)" width="1.87" x="37.86" y="26.44"/><rect height="1.87" transform="matrix(0.439 -0.8985 0.8985 0.439 -3.113 45.5073)" width="1.87" x="33.95" y="24.31"/><rect height="1.87" transform="matrix(0.4389 -0.8985 0.8985 0.4389 -3.387 40.7975)" width="1.87" x="30.04" y="22.17"/><rect height="1.87" width="1.87" x="29.76" y="34.43"/><rect height="1.87" width="1.87" x="29.76" y="30.26"/><rect height="1.87" width="1.87" x="29.76" y="26.1"/><rect height="1.87" transform="matrix(0.8985 -0.439 0.439 0.8985 -7.7359 21.3065)" width="1.87" x="41.27" y="26.44"/><rect height="1.87" transform="matrix(0.8985 -0.439 0.439 0.8985 -6.4016 22.8059)" width="1.87" x="45.18" y="24.31"/><rect height="1.87" transform="matrix(0.8985 -0.439 0.439 0.8985 -5.0674 24.3061)" width="1.87" x="49.09" y="22.17"/></g></g></svg>